<?xml version="1.0" encoding="utf-8"?>
<!-- Generator: Adobe Illustrator 27.5.0, SVG Export Plug-In . SVG Version: 6.00 Build 0)  -->
<svg version="1.1" id="Layer_1" xmlns="http://www.w3.org/2000/svg" xmlns:xlink="http://www.w3.org/1999/xlink" x="0px" y="0px"
	 viewBox="0 0 3000 3000" style="enable-background:new 0 0 3000 3000;" xml:space="preserve">
<path style="fill:#9159FF;" d="M1513.08,769.685c-0.18,2.691-38.81-6.215-50.32-17.868c-11.51-11.652-36-40.734-36-40.734
	l-18.29,28.558c0,0-4.86-18.109-12.89-22.3c-8.03-4.191-13.02-12.955-13.02-12.955s3.68-16.707,5.8-29.563s2.83-47.346,2.59-58.998
	c-0.24-11.653-0.69-47.162-0.68-47.162c0.02,0,34.82-29.365,45.45-31.036c10.63-1.67,30.72,5.55,30.51,6.159
	s-6.92,10.987-5.38,22.456c1.55,11.468-2.66,15.871,4.36,20.685c7.03,4.814,11.33,6.088,20.25,1.728
	c8.92-4.361,20.8-13.21,26.82-20.46c6.01-7.249,14.54-16.579,14.56-16.579c0.03,0,0.16,23.73-1.74,41.753
	c-1.89,18.024-5.66,53.364-9.91,75.437c-4.25,22.073-6.17,52.769-5.66,67.423S1513.08,769.685,1513.08,769.685z"/>
<path style="fill:#9159FF;" d="M1634.92,717.497c0,0-2.65-30.242-6.96-55.813c-4.3-25.57-16.32-85.715-22.01-98.401
	c-5.69-12.687-29.37-78.779-29.37-78.779s14.36-2.421,26.3,0.638c11.93,3.058,36.24,9.401,52.74,25.287
	c16.49,15.886,33.75,30.044,42.98,53.703s21.07,45.675,28.9,62.524s16.55,30.469,22.65,44.515c6.1,14.045,15.58,41.059,19.24,53.533
	c3.67,12.474,9.56,30.582,13.96,40.791c4.41,10.208,11.08,29.506,11.33,30.171c0.26,0.666-0.4,10.591-11.33,13.21
	c-10.93,2.62-34.66-1.416-46.72-14.456c-12.06-13.04-28.9-46.553-28.5-51.777c0.4-5.225,3.02-5.749,0-8.694
	c-3.02-2.945-31.31-17.188-46.16-18.59C1652.9,714.552,1643.75,715.275,1634.92,717.497z"/>
<path style="fill:#FF8C18;" d="M1210.03,999.365c0,0,1.42,69.165,1.26,101.075c-0.15,31.92-2.26,77.73-1.26,94.72
	c1.01,16.99-0.58,18.08,3.43,23.65c2.22,3.2,4.85,6.09,7.83,8.61c0,0-15.15,56.63-18.54,75.31c-3.38,18.67-7.6,37.91-5.42,51.42
	c2.18,13.51,3.3,20.08,6.54,25.48c3.25,5.41,5.23,10.41,12.05,12.75c6.83,2.33,21.49,1.41,33.88-8.36
	c12.39-9.77,31.44-27.35,38.7-35.94c7.26-8.6,18.12-19.19,24.55-35.1c6.43-15.92,5.15-19.06,12.74-32.07
	c7.59-13.01,16.7-23.87,22.87-33.77c6.17-9.9,7.86-10.34,7.08-15.58c-0.32-2.55-0.82-5.08-1.52-7.56c0,0,4.67-1.41,6.67-15.87
	c2-14.45,6.03-36.57,6.77-60.44c0.74-23.87,4.37-69.79,3.81-88.48c-0.57-18.69-2.28-71.214-4.69-83.065
	c-2.41-11.851-3.01-47.573-3.01-47.573s24.06,2.832,23.89,4.036c-0.16,1.203-1.23,51.154-1.82,79.442
	c-0.6,28.29,0.45,99.93-1.42,126.42s-2.56,42.59,1.06,54.61c3.63,12.02,8.2,18.05,8.2,18.05s3.03,3.08-7.91,20.17
	c-10.95,17.09-23.96,28.85-33.57,41.81c-9.62,12.95-22,22.65-26.9,43.02c-4.9,20.38-4.75,25.26-2.4,33.18
	c2.35,7.91,2.96,11.32,10.89,14.72c7.93,3.4,35.4,6.87,55.7-0.97c20.3-7.85,43.41-17.19,60.63-30.25
	c17.21-13.05,31.9-24.56,40.72-33.4c8.82-8.83,26.53-31.85,35.49-40.63c8.97-8.78,16.87-18.05,16.87-18.05s4.1,0.11,7.46-7.28
	c3.35-7.39,11.96-19.48,13.72-43.38c1.75-23.9,3.83-48.4,2.09-62.03c-1.74-13.64-4.92-20.49,0.57-35.5s15.08-38.23,16.69-51.68
	c1.62-13.45,2.52-46.394,1.42-61.685c-1.11-15.291-7.69-64.506-6.9-64.407c0.8,0.099,36.81,0.849,50.58,5.437
	c13.76,4.587,45.3,14.994,71.24,23.857c25.94,8.863,83.07,34.816,96.2,42.9c13.12,8.085,44.68,27.888,62.68,41.598
	c17.99,13.71,76.3,66.16,84.95,77.21c8.65,11.04,22.55,30.86,32.09,45.81c9.55,14.95,25.25,41.06,33.52,59.24
	c8.27,18.18,16.55,37.75,20.6,49.23c4.05,11.48,12.1,33.16,16.29,51.77c4.2,18.6,5.13,20.85,6.74,34.05
	c1.62,13.19,4.68,42.23,3.83,65.72c-0.85,23.49,0.52,45.93-6.01,73.84c-6.52,27.9-7.73,51.69-18.06,82.47
	c-8.73,25.7-18.81,50.93-30.2,75.56c-7.83,16.99-19.06,37.3-30.81,52.01c-11.75,14.71-30.78,40.05-48.06,64.82
	c-17.27,24.76-20.43,21.23-32.32,38.59s-19.82,26.52-33.98,47.42c-14.16,20.9-20.9,24.86-30.61,45.49
	c-9.71,20.63-20.23,36.5-25.97,56.28c-5.73,19.78-17.43,55.3-20.81,71.46c-3.38,16.15-4.66,43.66-4.35,51.25
	c0.31,7.59,1.12,15.76,1.12,15.76l-477.67,1.32c0,0,3.71-24.07,0.91-38.54c-2.8-14.47-11-46.98-19.08-65.61
	c-8.09-18.63-27.67-57.03-35.91-68.85c-8.24-11.83-33.83-45.88-45.31-58.85s-45.49-50.03-59.62-64.8s-52.56-55.67-65.78-73.99
	c-13.22-18.32-39.84-60.77-51.25-81.46c-11.42-20.68-28.151-62.29-33.56-83.89c-5.408-21.59-15.574-76.24-14.583-95.11
	c0.991-18.88-1.586-50.25,0.368-67.48c1.954-17.23,5.664-49.73,8.495-62.3c2.832-12.57,12.743-40.21,16.45-52.05
	c3.71-11.83,14.5-49.65,24.55-71.29c10.06-21.63,26.49-52.52,37.59-67.82c11.1-15.29,30.77-41.82,45.03-56.63
	c14.26-14.81,30-27.61,43.22-38.11c13.23-10.51,40.91-29.14,47.41-34.45C1201.69,1003.56,1205.7,1001.1,1210.03,999.365z"/>
<path style="fill:#9159FF;" d="M1389.17,429.003c-1.24-0.127-20.63,8.962-19.22,26.08c1.42,17.118,14.33,35.085,18.2,34.561
	c3.86-0.524,23.44-2.492,30.72-7.079c7.28-4.588,11.1-11.327,11.6-17.727c0.49-6.399-1.26-19.397-5.23-23.914
	c-3.96-4.516-14.41-12.402-20.8-12.997C1399.33,427.716,1394.2,428.077,1389.17,429.003z"/>
<path style="fill:#9159FF;" d="M1473.71,427.46c-5.66,3.341-18.59,20.303-17.39,33.046c1.21,12.742,12.31,20.331,17.39,22.214
	c5.08,1.884,12.47,5.919,19.91,4.347c7.43-1.571,16.45-5.975,21.69-13.323c5.23-7.348,6.28-17.911,2.36-25.301
	c-3.92-7.391-9.37-14.952-15.73-17.373C1495.58,428.649,1473.71,427.46,1473.71,427.46z"/>
<path d="M1301.43,2182.47c0,0-8.9,7.92-11.33,28.06c-2.48,20.5,0.78,30.27,3.07,37.9c2.3,7.63,8.26,15.11,8.26,15.11h62.86
	c0,0-29.29-5.21-44.95-28.49c-15.66-23.28-11.23-52.58-11.23-52.58H1301.43z"/>
<path d="M1301.43,2310.33c0,0-8.9,7.93-11.33,28.06c-2.48,20.51,0.78,30.27,3.07,37.91c2.3,7.63,8.26,15.1,8.26,15.1h62.86
	c0,0-29.29-5.21-44.95-28.48c-15.66-23.28-11.23-52.59-11.23-52.59H1301.43z"/>
<path d="M1299.36,2507.56c0,0-11.33-22.78-10.15-34.67c1.17-11.9,10.15-31.96,10.15-31.96h6.73c-3.52-0.18-1.85,25.32,11.45,42.25
	c15.43,19.64,50.76,24.38,50.76,24.38H1299.36z"/>
<path d="M721.89,2446.79c0,0-11.412-22.18-8.311-37.97c3.101-15.79,8.014-23.33,8.014-23.33l11.737-0.36c0,0-5.663,6.64-6.98,23.29
	c-2.605,33.05,28.671,37.37,28.671,37.37L721.89,2446.79z"/>
<path d="M725.953,2542.3c0,0-11.426-22.17-8.326-37.95c3.101-15.79,8.014-23.35,8.014-23.35l12.29,2.18c0,0-7.844,4.06-7.533,20.77
	c0.567,29.49,28.317,39.46,28.317,39.46L725.953,2542.3z"/>
<path d="M726.252,2580.83c0,0-10.18,15.84-6.655,28.67c2.099,7.66,5.365,14.95,9.685,21.62l29.492-7.79c0,0-17.642,0.61-26.208-18.4
	c-4.587-10.2,1.416-24.07,1.416-24.07L726.252,2580.83z"/>
<path d="M1114.62,2614.24c0,0,22.1-5.55,15.28,6.02c-4.03,6.81-42.65,26.73-42.65,26.73s55.05-18.29,70.42-23.16
	c15.38-4.87,87.02-27.89,87.02-27.89s-43.48-4.73-59.46-0.94c-15.99,3.8-46,9.38-51.92,11.7
	C1127.39,2609.02,1114.62,2614.24,1114.62,2614.24z"/>
<path d="M1788.55,2457.48c0,0-0.45,6.74,10.79,11.14c11.24,4.41,28.16,1.16,28.16,1.16l-21.68,17.75l-22.56,18.98
	c2.49-6.74,4.51-13.66,6.04-20.68C1791.71,2474.66,1788.55,2457.48,1788.55,2457.48z"/>
<path d="M1923.34,2434.36c0,0,24.07,3.23,31.71-2.39c7.65-5.62,18-19.15,18-19.15s-1.33,16.09,1.63,22.46
	c2.96,6.37,9.5,13.15,9.5,13.15L1923.34,2434.36z"/>
<path d="M1981.74,2401.39c-2.31,1.53-4.24,3.59-5.62,6.01c-1.37,2.42-2.16,5.12-2.3,7.9c-0.5,9.59-0.78,21.24,2.46,25.4
	c1.87,2.49,4.13,4.65,6.7,6.42l23.66,2.67c-7.17-3.52-13.36-8.77-18-15.27c-3.24-4.51-5.13-9.85-5.46-15.39
	c-0.33-5.54,0.91-11.06,3.59-15.92L1981.74,2401.39z"/>
<path d="M2013.86,2370.7l-30.83-1.24c0,0-6.19-13.61-6.75-25.05c-0.57-11.44,8.9-28.68,8.9-28.68l8.23,0.32c0,0-5.66,6.9-4.77,19.54
	c0.89,12.64,6.36,22.65,13.18,27.48C2005.69,2365.83,2009.71,2368.38,2013.86,2370.7z"/>
<path d="M2019.83,2285.14l-33.41-1.41c-4.97-7-7.35-15.51-6.74-24.07c1.12-14.16,8.9-29.73,8.9-29.73h7.76c0,0-4.39,5.38-5.42,17.64
	C1988.68,2275.39,2019.83,2285.14,2019.83,2285.14z"/>
<path d="M1428.75,1210.61c0,0,23.36-5.07,37.48-0.99s51.37,18.73,51.37,18.73l-22.81,30.33c0,0,3.54-18.05-25.09-36.22
	C1455.02,1213.13,1428.75,1210.61,1428.75,1210.61z"/>
<path d="M1248.43,1215.59c0,0,18.01-3.49,31.56,1.6c29.73,11.16,33.24,34.07,33.24,34.07s8.78-13.75,12.52-20.08
	c3.74-6.33,2.83-10.22,2.83-10.22s-18.59-11.4-32.82-12.93s-23.23-2.38-31.84,0.73C1258.61,1210.68,1253.43,1212.97,1248.43,1215.59
	z"/>
<path d="M1362.95,934.024c0,0-6.56-5.664-8.5-20.87c-1.94-15.206,2.34-17.132,2.34-17.132c-0.13,3.414,0.58,6.807,2.06,9.886
	c1.48,3.079,3.69,5.75,6.43,7.784c9.63,7.49,23.94,8.254,23.94,8.254l-1.51,10.563L1362.95,934.024z"/>
<path d="M1393.17,758.897c11.69,1.591,23.01,5.244,33.42,10.788c30.64,16.906,31.3,39.928,31.3,39.928l63.42-7.943
	c0,0-8.26-19.029-8.26-25.486c0-6.456-1.11-6.484-1.11-6.484s-15.14-0.553-25.29-5.437c-10.15-4.885-23.91-12.417-23.91-12.417
	h-63.72L1393.17,758.897z"/>
<path d="M1428.09,709.342l-18.61,28.657c3.65-8.337,5.82-17.242,6.43-26.321c1.08-15.249-1.07-50.178-1.07-50.178
	s3.75,27.439,7.77,34.391C1425.03,700.108,1426.88,704.632,1428.09,709.342z"/>
<path d="M1390.3,566.213c4.47-8.838,10.2-16.987,16.99-24.197c10.7-10.972,31.3-25.258,31.3-25.258s1.94,4.148,12.05,10.59
	c6.31,3.976,12.94,7.406,19.82,10.251l-6.24,14.909c0,0-1.78-9.685-17.3-11.03c-15.52-1.345-41.22,18.406-47.09,24.735
	c-3.78,4.162-6.99,8.798-9.57,13.791L1390.3,566.213z"/>
<path d="M1395.58,428.876c0,0-19.66,6.569-20.87,23.814c-1.02,14.725,4.02,23.815,15.58,29.436c13.35,6.484,28.51-1.076,28.51-1.076
	s-16.27,14.725-35.54,4.106c-11.04-6.088-21.02-19.199-18.05-29.535c2.97-10.336,1.52-11.242,7.59-17.132
	C1379.01,432.68,1387.09,429.272,1395.58,428.876z"/>
<path d="M1484.54,428.876c0,0-19.67,6.569-20.87,23.814c-1.03,14.725,4.01,23.815,15.57,29.436c13.37,6.484,28.52-1.076,28.52-1.076
	s-16.27,14.725-35.54,4.106c-11.04-6.088-21.01-19.199-18.04-29.535c2.98-10.336,1.52-11.242,7.59-17.132
	C1467.98,432.681,1476.05,429.273,1484.54,428.876z"/>
<path d="M1541.44,413.839c0,0,6.93-35.538-2.18-45.718c-9.1-10.18-13.65-13.365-33.98-1.6c-20.33,11.766-47.26,21.139-66.35,21.139
	c-18.5,0-21.59-3.724-29.73-10.435c-11.69-9.67-9.07-24.494-4.54-32.649c10.6-18.987,31.84-12.304,31.84-12.304
	c-2.21-3.907-3.32-8.342-3.21-12.831c0.11-4.489,1.44-8.863,3.85-12.654c13.55-21.408,43.21-23.631,55.81-18.406
	c35.85,14.71,27.74,28.685,49.14,36.982c21.41,8.297,33.26-1.926,44.24,6.626c10.97,8.552,13.4,31.842,8.04,51.239
	c-5.37,19.398-7.39,30.597-7.39,30.597s-8.41-4.247-14.83-1.033c-6.41,3.213-18.4,16.197-18.4,16.197L1541.44,413.839z"/>
<path d="M1578.71,486.996l-8.78-20.19l17.17-13.096c0,0,5.03,0.566,8.97,9.401c3.93,8.835,0,21.393,0,21.393L1578.71,486.996z"/>
<path d="M1632.11,711.083l3.22,35.652c0,0,5.08-9.911,12.84-15.575c7.76-5.663,20.87-9.628,30.5-8.693
	c6.71,0.791,13.35,2.175,19.82,4.134c0,0-20.93-12.332-36.18-13.932C1647.06,711.069,1632.11,711.083,1632.11,711.083z"/>
<path d="M1709.3,735.011c0,0,3.62,28.317,20.46,45.704c16.85,17.387,31.85,26.901,45.5,25.103c3.91-0.51,7.62-2.033,10.77-4.42
	c3.14-2.387,5.61-5.553,7.15-9.186c0,0,15.01,31.333,14.47,36.656c-0.54,5.324-1.98,19.284-1.5,28.784
	c0.48,9.501,1.51,18.307,1.51,18.307s-13.67-41.47-43.11-55.119c-29.43-13.649-62.41-26.136-69.56-28.897l-7.16-2.747
	c0,0,7.16-13.564,12.24-26.42C1705.16,749.92,1709.3,735.011,1709.3,735.011z"/>
<path d="M1708.43,947.078c0,0,24.55,11.596,45.96,6.244c21.4-5.352,33.17-10.973,39.06-21.139
	c5.89-10.166,12.53-22.654,12.53-22.654s-8.72,25.344-16.78,39.644c-4.83,8.586-11.05,16.313-18.4,22.866L1708.43,947.078z"/>
<path d="M1576.99,914.513l-6.43-19.822c0,0,10.71,9.826,21.68,14.81c10.97,4.984,30.67,10.605,30.67,10.605L1576.99,914.513z"/>
<path d="M994.539,1294.7c0,0-43.579-9.91-65.539-11.68s-45.591-2.31-45.591-2.31s43.892,0.07,66.956,13.99
	c23.064,13.92,23.588,15.83,28.897,27.3c5.31,11.46,1.317,30.83,1.317,30.83L994.539,1294.7z"/>
<path d="M1189.36,1843.92c0,0,19.47,29.73,24.82,49.56c5.35,19.82,6.41,26.76,5.88,39.06c-0.64,9.51-1.91,18.97-3.78,28.32
	c0,0,17.35-33.29,20.75-41.47c3.4-8.19,4.38-10.64,4.38-10.64s-4.87-6.24-19.82-27.04
	C1211.83,1868.3,1201.06,1855.67,1189.36,1843.92z"/>
<path d="M1888.91,1887.12c-0.71-1.11-12.25-19.3-6.36-46.6c4.13-17.84,10.33-35.15,18.49-51.55l-37.8,49.39
	c0,0,4.85,14.47,10.21,23.57C1878.8,1871.03,1888.91,1887.12,1888.91,1887.12z"/>
<path d="M2040.32,1290.11l12.13,50.19c0,0-3.48-20.46,9.91-37.57c13.4-17.12,42.11-27.06,42.11-27.06s-19.82,2.09-35.79,6.81
	C2052.71,1287.19,2040.32,1290.11,2040.32,1290.11z"/>
<path d="M1428.91,400.035c5.18-6.145,10.35-5.536,15.21-3.257c4.85,2.28,8.01,8.495,8.22,13.352l33.2-19.482
	c3.37-7.292,8.5-8.071,13.81-7.08c5.31,0.991,9.91,6.032,11.45,10.704L1428.91,400.035z"/>
<path d="M1431.73,383.243h-5.66v16.862h5.66V383.243z"/>
<path d="M1495.36,524.191c-3.28,0.01-6.55-0.241-9.79-0.751c-23.93-3.851-36.81-11.624-40.5-24.494
	c-1.53-5.267-0.93-9.33,1.79-12.049c5.14-5.168,15.75-2.662,17.87-2.095c1.07,0.238,2.1,0.609,3.07,1.104
	c8.09,3.738,16.91,5.643,25.81,5.579c0.34,0,34.21-0.34,35.06-30.059c0.53-18.038-7.67-27.963-25.77-31.248
	c-11.05-2.01-26.19-4.757-40.41,11.327c-6.86,7.801-7.61,18.958-7.63,19.072l-0.21,3.497l-3.37-0.935
	c-0.62-0.17-15.35-4.389-16.76-15.758c-1.42-11.016,5-27.284,15.57-32.565c1.42-0.736,2.83-1.416,4.01-2.081
	c6.96-3.681,11.99-6.343,27.23-7.079c17.71-0.822,28.91,4.049,29.37,4.247l-2.29,5.168c-0.11,0-10.53-4.531-26.82-3.766
	c-13.97,0.651-18.06,2.832-24.84,6.4c-1.28,0.665-2.62,1.415-4.12,2.123c-8.27,4.135-13.61,18.052-12.51,26.817
	c0.64,5.097,6.04,8.282,9.58,9.911c1.12-6.893,4.06-13.365,8.49-18.761c16.32-18.519,33.98-15.305,45.68-13.181
	c20.77,3.766,31,16.211,30.41,36.968c-0.84,29.181-29.73,35.566-40.72,35.566c-9.67,0.062-19.23-1.977-28.04-5.975
	c-0.59-0.269-1.26-0.552-1.58-0.68h-0.11l-0.39-0.099c-3.06-0.863-10.16-1.854-12.57,0.567c-1.42,1.416-0.99,4.332-0.37,6.484
	c3.05,10.506,14.47,16.991,35.96,20.474c21.5,3.483,44.72-7.419,44.94-7.533l2.43,5.126
	C1532.95,515.851,1515.01,524.191,1495.36,524.191z"/>
<path d="M1633.97,739.825c0-0.764-5-75.974-21.24-140.778c-16.47-65.866-35.27-109.205-51.59-144.644
	c-16.57-35.948-18.98-38.341-35.85-49.073c-16-10.18-39.39-12.629-55.6-5.833c-14.08,5.904-22.39,22.554-22.47,22.724l-5.06-2.492
	c0.37-0.764,9.3-18.717,25.36-25.485c18.09-7.603,43.1-5.026,60.88,6.258c18.41,11.737,21.64,16.07,37.95,51.48
	c16.43,35.68,35.39,79.288,51.94,145.649c16.33,65.313,21.24,141.033,21.36,141.784L1633.97,739.825z"/>
<path d="M1599.48,860.385c-3.45-0.008-6.89-0.225-10.31-0.651c-0.82-0.099-1.41-0.184-1.9-0.213
	c-22.17-1.217-43.97-16.013-56.88-38.61l-1.42-2.407c-10.58-18.406-17.56-30.611-21.47-68.131c-2.91-28.09,2.84-68.173,8.26-106.939
	c2.18-15.376,4.25-29.889,5.8-43.778c5.5-48.734,0.07-82.12,0-82.403l5.67-0.934c0,0.339,5.66,34.377,0,83.974
	c-1.57,13.974-3.74,29.195-5.82,43.891c-5.45,38.427-11.07,78.155-8.23,105.552c3.8,36.331,10.54,48.139,20.74,65.908l1.42,2.421
	c11.98,20.941,32.01,34.646,52.29,35.765c0.54,0,1.3,0.113,2.28,0.24c32.12,3.979,60.4-12.063,84.03-47.671
	c21.69-32.692,32.68-61.293,36.74-95.627c2.7-23.747,4.16-47.617,4.39-71.515h5.66c-0.23,24.13-1.71,48.232-4.43,72.209
	c-4.18,35.283-15.43,64.619-37.65,98.09C1656.21,843.324,1629.62,860.385,1599.48,860.385z"/>
<path d="M1707.21,736.116c-10.9-8.506-23.35-14.832-36.64-18.633c-17.29-4.715-30-3.554-33.49-3.101
	c-0.36,0.064-0.74,0.054-1.1-0.028c-0.37-0.082-0.71-0.235-1.02-0.45c-0.3-0.215-0.56-0.488-0.76-0.803
	c-0.2-0.315-0.33-0.666-0.39-1.034c-0.07-0.367-0.06-0.743,0.02-1.106c0.09-0.364,0.24-0.708,0.45-1.012
	c0.22-0.304,0.49-0.563,0.81-0.762c0.31-0.199,0.66-0.334,1.03-0.397l0.21,0.878l-0.1-0.878c3.85-0.51,17.52-1.756,35.82,3.228
	c14.12,3.994,27.3,10.729,38.81,19.822L1707.21,736.116z"/>
<path d="M1545.25,1243.46c-0.69,0-1.37-0.2-1.94-0.58c-5.66-3.32-67.21-33.88-95.74-31.65c-10.38,0.81-18.62,2.18-25.25,3.29
	c-13.57,2.28-21.77,3.64-30.41-2.62c-9.91-7.08-9.82-18.56-9.74-39.31c0-6.88,0-14.69-0.25-23.89
	c-1.21-36.52,1.55-221.628,6.86-251.432c5.4-30.257,26.38-64.931,47.79-78.934c20.92-13.677,53.22-17.117,65.38-18.406l0.89-0.099
	c6.76-0.738,13.55-1.06,20.34-0.963l-0.16,5.664c-6.54-0.068-13.08,0.248-19.58,0.948l-0.88,0.099
	c-11.79,1.246-43.11,4.588-62.89,17.514c-20.26,13.253-40.17,46.285-45.31,75.182c-5.27,29.563-7.98,213.797-6.78,250.257
	c0.3,9.3,0.27,17.17,0.25,24.06c-0.08,19.49-0.11,29.26,7.41,34.69c6.72,4.87,13.21,3.8,26.15,1.63c6.74-1.13,15.11-2.52,25.74-3.35
	c29.83-2.34,88.04,26.71,97.89,31.81c1.32-1.56,4.87-7.08,11.64-25.94c9.15-25.48,7.08-64.83,5.47-93.6
	c-1.04-18.96,1.92-26.42,6.81-38.77c4.19-10.24,7.72-20.75,10.56-31.46c10.16-38.32-3.14-130.383-3.27-131.303l-0.24-1.614
	l1.27-1.005c0.95-0.779,2.96-2.379,44.3,3.412c37.74,5.281,133.97,45.435,148.67,51.636c1.12-1.133,2.83-2.959,4.93-5.338
	c15.84-18.236,27.29-42.475,29.18-61.688c1-10.152,0.32-20.856-0.32-31.149c-0.63-10.293-1.27-20.233-0.25-29.195
	c1.6-14.003-0.2-18.562-6.12-33.683c-1.21-3.101-2.6-6.64-4.15-10.746c-3.22-8.496-6.17-15.306-9.03-21.861
	c-6.65-14.592-12.15-29.678-16.46-45.123c-9.32-32.806-15.58-51.594-33.43-82.021c-12.25-20.969-19.67-37.449-27.53-54.907
	c-3.88-8.608-7.88-17.5-12.74-27.552c-18.41-38.228-42.19-54.638-54.96-63.459l-1.09-0.75c-22.76-15.73-56.88-13.394-59.81-12.629
	c0.12-0.039,0.23-0.086,0.34-0.142l-2.53-5.055c2.53-1.274,40.46-3.95,65.22,13.168l1.08,0.75
	c13.21,9.104,37.79,26.066,56.85,65.667c4.87,10.11,8.89,19.044,12.74,27.68c8.13,18.067,15.15,33.669,27.24,54.369
	c18.11,30.993,24.55,50.065,33.98,83.337c4.24,15.198,9.66,30.043,16.2,44.401c2.83,6.612,5.87,13.451,9.15,22.13
	c1.54,4.092,2.91,7.589,4.12,10.676c6.15,15.701,8.22,20.997,6.48,36.387c-0.96,8.495-0.37,18.052,0.27,28.204
	c0.66,10.562,1.41,21.493,0.31,32.097c-2.02,20.643-13.73,45.492-30.55,64.86c-3.78,4.333-6.52,6.924-6.63,7.08l-1.42,1.274
	l-1.69-0.736c-1.1-0.453-109.69-46.469-148.99-51.976c-24.58-3.441-34.58-4.12-38.52-4.248c2.28,16.622,12.24,94.652,2.72,130.552
	c-2.88,10.95-6.47,21.69-10.74,32.17c-4.76,12.04-7.39,18.66-6.43,36.38c1.58,29.25,3.75,69.37-5.78,95.83
	c-10.09,28.07-13.92,29.34-15.57,29.88C1545.95,1243.44,1545.6,1243.47,1545.25,1243.46z M1546.11,1237.98l0.34,0.18
	C1546.35,1238.09,1546.23,1238.02,1546.11,1237.98z"/>
<path d="M1443.89,422.872c-4.97-5.748-21.01-11.595-31.79-11.595c-9.07,0.065-18.05,1.852-26.46,5.267l-2.34-5.168
	c9.14-3.759,18.92-5.715,28.8-5.763c11.33,0,29.47,5.918,36.08,13.55L1443.89,422.872z"/>
<path d="M1305.62,808.65c-12.23,0.232-24.11-4.064-33.36-12.063c-12.36-10.704-17.83-29.889-16.69-58.659
	c0.66-17.146,4.44-64.11,25-129.975c18.41-58.801,52.06-113.736,56.44-120.73l-0.37-12.743c-0.41-13.861,4.57-36.146,19.98-53.349
	c14.96-16.707,34.94-24.31,62.78-23.815c18.15,0.298,26.29,6.471,30.21,9.43c0.45,0.368,0.93,0.713,1.42,1.033
	c-0.3-0.101-0.61-0.133-0.92-0.093c-0.3,0.039-0.6,0.149-0.85,0.32l3.04,4.771c-2.25,1.416-4.25-0.141-6.13-1.515
	c-3.44-2.605-10.58-8.013-26.9-8.282c-26.49-0.439-44.47,6.314-58.46,21.931c-11.97,13.675-18.55,31.231-18.54,49.399l0.43,14.513
	l-0.47,0.736c-0.37,0.581-36.95,58.22-56.28,120.121c-20.36,65.228-24.07,111.598-24.75,128.503
	c-1.06,26.901,3.77,44.656,14.74,54.17c9.32,8.071,21,11.596,34.69,10.463c31.57-2.619,67.03-29.463,82.12-47.685
	c20.4-24.636,31.7-43.595,32.05-46.851c-0.03,0.173-0.03,0.351,0,0.524l5.44-1.558c1.67,5.848-18.4,33.627-33.2,51.495
	c-14.8,17.868-50.97,46.808-86.01,49.725C1309.21,808.565,1307.4,808.65,1305.62,808.65z"/>
<path d="M1513.08,772.517c-41.37,0-77.53-39.162-89.98-66.984c-13.11-29.28-13.5-74.19-13.5-79.203h5.66
	c0,4.899,0.36,48.677,13,76.895c11.84,26.42,45.96,63.629,84.81,63.629L1513.08,772.517z"/>
<path d="M1484.75,542.639h-2.18c-8.38-0.54-16.56-2.835-24-6.738c-7.45-3.902-13.98-9.325-19.2-15.915
	c-6.24-7.957-9.07-13.267-10.33-16.637c-11.22,6.301-24.92,6.471-34.83,5.395c-6.25-0.543-12.24-2.785-17.3-6.485l3.63-4.361
	l-1.81,2.181l1.8-2.181c4.22,2.968,9.15,4.766,14.29,5.211c9.82,1.062,23.67,0.849,33.89-6.216c0.55-0.514,1.27-0.813,2.03-0.842
	c0.75-0.028,1.49,0.215,2.08,0.686l1.67,1.416l-0.7,1.331c0.3,1.416,1.86,6.513,10.04,16.99c10.64,13.564,27.22,20.049,38.94,20.445
	c7.98,0.036,15.94-0.877,23.7-2.718l1.42,5.493C1500.3,541.506,1492.55,542.494,1484.75,542.639z"/>
<path d="M1378.45,721.745l-4.96-2.733c0.09-0.156,8.26-15.178,12.14-38.44c3.48-20.912,2.97-45.152,2.26-78.722
	c-0.1-4.719-0.2-9.609-0.29-14.668c-0.8-41.81,2.83-81.142,2.83-81.525l5.66,0.51c0,0.396-3.58,39.417-2.83,80.902
	c0.1,5.097,0.2,9.911,0.3,14.654c0.7,33.881,1.23,58.347-2.35,79.783C1387.1,705.788,1378.75,721.108,1378.45,721.745z"/>
<path d="M1407.04,739.429c-4.77-8.129-10.13-15.899-16.03-23.249c-6.74-8.013-9.05-9.033-9.15-9.075
	c0.25,0.086,0.51,0.124,0.77,0.113l-0.16-5.663c0.95,0,3.55-0.114,12.87,10.973c6.12,7.598,11.67,15.644,16.59,24.069
	L1407.04,739.429z"/>
<path d="M1475.15,593.468c-2.83,0.056-5.64-0.555-8.2-1.784c-4.43-2.222-7.36-6.385-8.7-12.36c-3.81-16.877,9.2-41.952,9.75-43.013
	l5.01,2.633c-0.11,0.241-12.58,24.296-9.24,39.134c0.96,4.248,2.83,7.079,5.66,8.495c5.89,2.959,14.77-0.382,18.31-1.954
	c14.16-6.314,27.88-24.805,33.72-32.706c1.03-1.586,2.22-3.062,3.56-4.403l3.52,4.432l0.1-0.085c-0.32,0.325-1.5,1.897-2.62,3.426
	c-6.11,8.254-20.43,27.595-35.97,34.504C1485.38,591.994,1480.31,593.246,1475.15,593.468z"/>
<path d="M1568.95,470.034l-1.3-5.507c4.23-1.139,8.11-3.287,11.33-6.258l0.86-0.864c5.11-5.111,11.46-11.454,11.7-24.069
	c0.21-10.718-2.45-16.141-9.15-18.718c-9.13-3.483-23.35,11.596-26.35,15.957l-4.67-3.214c2.74-3.993,19.54-23.192,33.04-18.024
	c11.66,4.46,12.96,15.22,12.75,24.069c-0.29,14.867-8.16,22.739-13.35,27.949l-0.85,0.836
	C1579.02,465.939,1574.21,468.637,1568.95,470.034z"/>
<path d="M1566.56,441.349l-5.67-0.736c0-0.425,1.42-10.336,9.36-16.636c8.78-6.98,14.16-3.738,14.71-3.342l-3.18,4.687l0.13,0.085
	c0,0-2.71-1.303-8.13,3.001C1569.94,431.754,1567.39,436.328,1566.56,441.349z"/>
<path d="M1223.95,1231.18c-0.2,0.02-0.41,0.02-0.61,0c-3.45-0.58-16.29-7.08-16.14-28.5c0-4.42,0.16-11.67,0.33-20.85
	c0.52-30.4,1.41-81.26,0.61-124.6l-0.2-10.19c-1.16-58.336-2.75-138.233,10.46-187.193c14.09-52.231,49.64-69.787,51.14-70.524
	l2.45,5.112c-0.34,0.17-34.74,17.287-48.14,66.884c-13,48.139-11.42,127.611-10.26,185.601l0.19,10.2
	c0.83,43.46-0.08,94.41-0.6,124.83c-0.17,9.18-0.3,16.41-0.33,20.8c-0.13,16.4,8.5,21.98,11.06,22.78c1.16-0.46,4.25-2.28,6.94-3.9
	c11.32-6.73,30.14-17.99,47.53-17.99c15.81,0,31.26,6.46,43.69,11.66c6.63,2.83,12.36,5.16,16.79,6.06
	c6.42,1.27,10.34,0.96,13.08-1.07c3.9-2.83,6.39-9.91,7.64-21.62c0.29-2.71,0.65-5.96,1.07-9.65c3.36-29.81,10.32-91.83,7.48-149.36
	c-3.17-63.897-7.96-104.773-8.02-105.24l-0.35-2.973l28.76-1.756l0.34,5.663l-22.79,1.416c1.15,10.534,5.02,48.323,7.71,102.64
	c2.83,58.05-4.14,120.34-7.51,150.27c-0.41,3.69-0.78,6.91-1.06,9.63c-1.42,13.74-4.52,21.62-9.91,25.59
	c-5.39,3.96-11.81,3.18-17.54,2.04c-5-1-10.96-3.5-17.89-6.39c-11.95-5-26.81-11.21-41.49-11.21c-15.83,0-33.86,10.76-44.63,17.17
	C1227.89,1229.92,1225.69,1231.18,1223.95,1231.18z"/>
<path d="M1322.14,1217.99l-5.44-1.59c0.07-0.23,6.63-22.72,11.33-43.79c4.53-20.13,7.52-73.27,4.76-114.25
	c-1.42-21.59-5.67-41.68-10.14-62.959c-3.7-17.67-7.52-35.92-10.18-56.734c-6.03-47.048,1.8-61.051,11.85-73.326
	c16.31-19.95,83.14-16.92,85.97-16.778l-0.27,5.663c-18.53-0.906-69.26,0-81.33,14.711c-9.18,11.327-16.35,24.211-10.61,69.023
	c2.63,20.586,6.44,38.737,10.12,56.294c4.5,21.476,8.75,41.756,10.24,63.716c2.56,37.9,0.22,93.12-4.89,115.86
	C1328.89,1195.09,1322.21,1217.76,1322.14,1217.99z"/>
<path d="M1514.74,1229.65c-0.87-0.72-1.85-1.29-2.92-1.68c-0.48-0.13-0.93-0.38-1.3-0.72c-0.37-0.35-0.65-0.77-0.82-1.25
	c-0.14-0.48-0.16-0.99-0.07-1.48c0.1-0.49,0.31-0.96,0.62-1.35c1.69-2.38,7.08-14.5,6.12-70.71c-0.71-41.06-3.67-70.79-6.05-94.73
	c-3-30.26-5.17-52.12-1.06-77.55c0.62-3.794,1.35-7.079,2.04-10.378c2.46-11.482,4.6-21.393,0.86-46.001
	c-4.67-30.837,1.21-52.386,15.7-57.668c7.08-2.591,16.54,1.799,27.44,6.881c9.33,4.361,19.83,9.288,29.26,9.543
	c6.28,0.014,12.52-0.99,18.49-2.973c9.14-2.591,18.61-5.281,34.39,1.034c10.74,4.247,20.65,10.618,29.4,16.197
	c11.2,7.079,20.87,13.309,29.04,13.564c26.07,0.807,38.77,9.755,47.17,15.673c2.15,1.737,4.53,3.166,7.08,4.248
	c3.56,1.118,10.22,3.2,15.33-0.68c4.47-3.398,9.63-12.742,8.81-38.228c-0.83-26.066-0.87-42.475-0.74-51.664
	c0-4.871,0.18-8.963,0.34-11.865c0.23-3.851,0.35-5.975,2.83-6.357l2.48-0.368l0.73,2.506l-2.73,0.764v2.733
	c0.59-0.023,1.15-0.226,1.61-0.581c0.47-0.355,0.81-0.844,0.98-1.401c-0.46,2.152-1.29,21.775,0.13,66.049
	c0.72,22.654-2.83,36.812-11.04,42.957c-7.44,5.664-16.23,2.832-20.46,1.572c-3.13-1.23-6.06-2.925-8.68-5.027
	c-7.85-5.536-19.7-13.889-44.08-14.64c-9.71-0.297-19.99-6.852-31.9-14.455c-8.96-5.664-18.22-11.625-28.45-15.716
	c-13.98-5.664-21.77-3.384-30.76-0.836c-6.5,2.151-13.32,3.227-20.17,3.186c-10.54-0.283-21.68-5.479-31.51-10.067
	c-9.35-4.36-18.2-8.495-23.1-6.697c-9.09,3.299-16.99,18.562-12.04,51.495c3.88,25.627,1.55,36.515-0.93,48.04
	c-0.68,3.171-1.42,6.442-1.98,10.095c-4,24.705-1.86,46.255,1.1,76.085c2.39,24,5.35,53.81,6.07,95.19
	c0.46,26.39-0.22,59.21-5.74,71.54c0.55,0.34,1.17,0.75,1.87,1.28L1514.74,1229.65z"/>
<path d="M1354.05,1371.45c-7.95,0-15.22-1.24-20.65-4.49c-8.07-4.81-20.36-17.44-11.98-47.87c5.76-20.89,31.71-52.23,48.9-72.96
	c4.25-5.11,7.89-9.52,10.45-12.84c11.58-14.95,10.07-22.95,10.05-23.03l5.5-1.42c0.27,1.03,2.23,10.66-11.08,27.85
	c-2.62,3.4-6.3,7.83-10.56,12.98c-16.88,20.36-42.37,51.13-47.81,70.8c-7.08,25.48,1.26,36.62,9.43,41.5
	c13.97,8.35,47.36,0.92,71.68-7.99c24.65-9.01,71.04-44.8,91.72-67.79c20.69-22.99,41.22-47.28,41.42-47.52l4.33,3.66
	c-0.21,0.24-20.62,24.4-41.54,47.65c-21.11,23.46-68.63,60.05-93.97,69.38C1400.54,1362.87,1374.95,1371.45,1354.05,1371.45z"/>
<path d="M1335.48,1348.23c-4.64,0.04-9.27-0.19-13.88-0.68l0.71-5.66c0.35,0,36.15,4.25,71.1-10.51
	c35.64-15.05,58.95-35.18,77.68-51.35c18.08-15.57,43.89-52.95,44.17-53.32l4.66,3.21c-1.08,1.56-26.5,38.3-45.02,54.3
	c-18.14,15.66-42.82,36.98-79.29,52.39C1372.53,1346.35,1349.58,1348.23,1335.48,1348.23z"/>
<path d="M1412.25,1282.48c-7.79,0-22.09-8.34-28.56-21.24c-1.68-3.38-2.84-7-3.43-10.73c-2.88,0.06-5.72,0.62-8.41,1.66l-2.39-5.14
	c3.29-1.34,6.81-2.08,10.36-2.17c0-7.48,2.38-14.37,6.97-18.55c2.1-1.87,4.49-3.4,7.08-4.53c-1.9-2.73-2.98-4.47-3.07-4.66
	l4.82-2.94c0,0,1.42,2.28,3.84,5.66c9.56-2.41,21.61-1.6,33.81,2.65c14.16,4.91,23.02,13.15,22.66,20.98
	c-0.16,3.06-1.93,8.5-12.05,10.93c-10.4,2.48-25.08-3.69-35.73-14.99c-3.85-4.11-7.47-8.43-10.84-12.94c-2.46,0.91-4.73,2.27-6.7,4
	c-3.42,3.12-5.17,8.5-5.12,14.49c5.78,0.56,11.42,2.14,16.66,4.66c13.42,6.28,21.76,15.33,21.24,23.03
	c-0.16,2.57-1.52,7.21-8.77,9.52C1413.85,1282.39,1413.05,1282.5,1412.25,1282.48z M1386.05,1250.68c0.54,2.76,1.45,5.45,2.71,7.97
	c6.06,12.16,20.6,19.24,24.15,18.09c3.09-0.97,4.72-2.49,4.84-4.48c0.29-4.39-5.82-11.83-18.02-17.55
	C1395.42,1252.65,1390.8,1251.29,1386.05,1250.68z M1403.18,1224.83c2.52,3.25,5.6,6.96,9.08,10.67
	c10.39,11.03,23.11,15.08,30.3,13.37c2.83-0.67,7.52-2.3,7.69-5.67c0.22-4.24-6.18-10.96-18.83-15.34
	C1421.36,1224.3,1411.3,1223.35,1403.18,1224.83z"/>
<path d="M1254.18,1283.67c-7.87-0.13-15.65-1.57-23.05-4.25c-5.54-1.92-10.52-5.18-14.5-9.49c-1.71,0.85-3.37,1.79-4.97,2.84
	l-3.27-4.62c1.58-1.08,3.23-2.06,4.94-2.93c-0.39-0.73-0.74-1.48-1.04-2.25c-1.01-2.48-1.46-5.14-1.34-7.81
	c0.11-2.67,0.81-5.28,2.03-7.65c2.81-5.5,7.07-10.11,12.32-13.35c-3.37-2.51-5.5-4.38-5.84-4.69l3.78-4.25
	c2.44,2.09,4.98,4.06,7.62,5.88c6.22-2.79,12.8-4.69,19.54-5.67c20.2-3.15,33.48,2.65,36.16,10.04c1.42,3.97-0.28,7.87-4.57,10.44
	c-17.47,10.45-38.9,0.1-51.6-8.29c-5.28,2.76-9.58,7.06-12.34,12.34c-0.88,1.65-1.37,3.48-1.46,5.36c-0.09,1.87,0.24,3.74,0.96,5.47
	c0.26,0.69,0.56,1.37,0.91,2.02c8.06-3.41,16.73-5.18,25.48-5.22c14.56,0,27.74,5.28,30.67,12.3c0.57,1.25,0.74,2.64,0.48,3.98
	c-0.25,1.34-0.91,2.57-1.89,3.53C1268.58,1282.08,1261.49,1283.67,1254.18,1283.67z M1222.15,1267.49
	c3.16,2.92,6.88,5.18,10.93,6.62c10.04,3.7,28.7,6.78,36.08-0.66c0.2-0.16,0.33-0.38,0.37-0.63c0.04-0.24-0.01-0.49-0.14-0.71
	c-1.5-3.62-11.44-8.83-25.49-8.83C1236.46,1263.33,1229.08,1264.76,1222.15,1267.49z M1236.57,1234.92
	c11.73,7.08,29.01,14.36,42.47,6.27c1.89-1.13,2.62-2.36,2.15-3.65c-1.33-3.65-11.46-9.26-29.95-6.36
	c-5.01,0.73-9.92,1.97-14.67,3.71V1234.92z"/>
<path d="M1223.64,1396.46c-7.08,0-12.53-2.36-16.6-7.08c-8.31-9.65-12.85-25.22-12.82-43.9c0-33.74,23.41-115.46,24.41-118.93
	l5.45,1.56c-0.24,0.85-24.07,84.43-24.2,117.37c0,17.29,4.03,31.55,11.45,40.16c4.73,5.49,12.58,6.51,23.99,3.14
	c11.93-3.52,42.18-29.45,63.29-57.58c10.83-14.44,14.84-25.67,18.71-36.54c2.84-7.92,5.51-15.4,10.58-23.47
	c4.82-7.58,10.02-14.91,15.58-21.97c4.24-5.49,7.54-9.81,8.76-13.1c2.18-5.86-1.02-12.36-1.06-12.43l5.04-2.59
	c0.18,0.36,4.4,8.72,1.33,16.99c-1.52,4.07-4.9,8.5-9.57,14.56c-5.46,6.91-10.57,14.11-15.29,21.55
	c-4.75,7.53-7.32,14.74-10.04,22.35c-3.84,10.73-8.19,22.91-19.54,38.03c-20.19,26.9-51.75,55.35-66.21,59.62
	C1232.61,1395.58,1228.14,1396.34,1223.64,1396.46z"/>
<path d="M1206.8,1377.57c-1.37,0-2.75-0.08-4.12-0.24h-0.58v-5.67c0.42,0.02,0.83,0.06,1.24,0.12c12.23,1.41,26.39-4.92,42.1-18.92
	c24.98-22.27,38.92-40.49,46.6-60.97c1.16-3.1,2.21-5.94,3.18-8.6c5.04-13.78,8.39-22.88,16.65-35.06
	c9.92-14.51,13.02-19.48,13.88-27.51l5.66,0.61c-1.06,9.82-5.38,16.17-14.82,30.09c-7.89,11.59-10.95,19.96-16.03,33.81
	c-0.98,2.67-2.02,5.55-3.2,8.66c-8.01,21.38-22.41,40.28-48.14,63.19C1233.92,1370.67,1219.66,1377.57,1206.8,1377.57z"/>
<path d="M1777.21,2090.59h-481.89l1.42-3.79c0-0.13,4.43-13.03-0.13-38.68c-8.49-48.23-26.23-90.17-59.07-140.17
	c-22.07-33.63-73.83-88.74-126.49-143.27c-55.22-57.15-123.701-161.99-135.241-269.37c-10.038-93.53-6.343-140.17,37.461-268.9
	c26.59-78.14,78.3-136.36,117.01-171.44c41.91-38.01,78.08-57.856,78.44-58.054l2.7,4.984c-0.35,0.18-36.05,19.82-77.46,57.37
	c-38.23,34.62-89.2,92.03-115.32,168.97c-43.454,127.71-47.135,173.91-37.196,266.48c11.327,105.94,79.116,209.54,133.676,266.02
	c52.85,54.74,104.77,110.08,127.15,144.09c33.29,50.75,51.21,93.31,59.92,142.34c3.46,19.44,2.04,31.97,0.87,37.8H1774
	c-1.69-14.16-5.43-71.61,30.59-152.44c27.37-61.42,66.21-110.12,103.77-157.16c39.64-49.66,80.59-101.01,107.61-167.07
	c32.45-79.53,52.21-207.67,27.18-298.75c-31.42-114.24-79.29-176.88-126.18-227.56c-50.46-54.45-146.41-107.006-147.36-107.601
	l2.7-4.969c0.96,0.524,97.7,53.52,148.82,108.65c47.45,51.2,95.73,114.49,127.43,229.91c25.37,92.24,5.42,221.91-27.4,302.33
	c-27.24,66.77-68.47,118.43-108.34,168.4c-37.34,46.81-75.96,95.2-103.03,155.97c-40.06,89.92-29.82,151.85-29.73,152.47l0.59,3.31
	L1777.21,2090.59z"/>
<path d="M1472.65,2090.59c-2.69,0-3.91,0-12.86-33.71c-5.07-19.09-12.05-47.13-20.71-83.37c-14.62-61-34.27-146.07-58.42-252.82
	c-41.13-181.79-81.6-365.85-81.99-367.72l-4.34-19.68l9.59,17.73c8.46,13.48,20.39,24.43,34.54,31.71
	c14.15,7.28,29.99,10.62,45.88,9.68c55.43-2.48,105.66-33.57,124.79-61.58c34.75-50.86,26.04-82.64,25.95-82.95l5.43-1.62
	c0.41,1.42,9.74,34.44-26.69,87.78c-19.92,29.14-71.97,61.49-129.23,64.04c-1.64,0.09-3.27,0.12-4.87,0.12
	c-13.8,0.13-27.46-2.78-40.02-8.53c-12.55-5.74-23.68-14.17-32.61-24.7c45.73,207.8,156.89,705.95,167.4,720.79
	c-0.23-0.26-0.52-0.47-0.83-0.6c-0.32-0.14-0.67-0.21-1.01-0.2V2090.59z"/>
<path d="M1601.46,2088.25l-5.66-0.89c0.9-5.66,90.06-561.51,104.33-672.53c5.45-42.36,8.3-73.3,10.29-96.87
	c-15.54,15.15-32.62,28.64-50.97,40.24c-55.97,34.98-108.68,25.48-143,11.33c-32.27-13.29-44.29-39.97-46.13-52.22
	c-0.21-1.42-0.48-3.22,0.95-4.39l3.6,4.37c0.54-0.43,0.88-1.06,0.96-1.75c-0.08,4.05,7.45,34.21,42.79,48.75
	c33.14,13.63,83.96,22.79,137.89-10.91c19.87-12.65,38.21-27.55,54.66-44.41c0.09-1.05,0.17-2.07,0.26-3.07
	c2.59-31.52,4.16-50.53,10.48-72.21c6.52-22.34,19.96-27.4,29.49-24.92s17.55,13,14.52,26.33c-5.04,22.18-23.91,50.51-49.28,76.56
	c-2.03,24.39-4.89,57.19-10.87,103.78C1691.54,1526.6,1602.37,2082.59,1601.46,2088.25z M1747.01,1213.94
	c-6.73,0-14.95,5.45-19.61,21.41c-5.89,20.21-7.56,38.31-9.91,67.18c22.17-23.87,38.58-49.12,43.01-68.6
	c2.27-10-3.52-17.81-10.42-19.61c-1-0.27-2.03-0.42-3.07-0.44V1213.94z"/>
<path d="M1781.33,2185.3h-484.8v-97.54h5.66v91.87h473.41l-1.22-91.84l5.66-0.07L1781.33,2185.3z"/>
<path d="M1781.3,2314.54h-484.77v-53.81h484.77V2314.54z M1302.19,2308.87h473.45v-42.47h-473.45V2308.87z"/>
<path d="M1781.3,2443.76h-484.77v-53.8h484.77V2443.76z M1302.19,2438.1h473.45v-42.48h-473.45V2438.1z"/>
<path d="M1302.19,2595.85h-5.66v-91.12h484.08v5.66h-478.42V2595.85z"/>
<path d="M1397.99,492.476c-19.71,0-35.74-15.235-35.74-33.981s16.03-33.98,35.74-33.98s35.75,15.234,35.75,33.98
	S1417.7,492.476,1397.99,492.476z M1397.99,430.178c-16.58,0-30.07,12.743-30.07,28.317c0,15.575,13.49,28.317,30.07,28.317
	s30.09-12.742,30.09-28.317c0-15.574-13.5-28.204-30.09-28.204V430.178z"/>
<path d="M1486.55,492.476c-19.71,0-35.74-15.235-35.74-33.981s16.03-33.98,35.74-33.98c19.71,0,35.75,15.234,35.75,33.98
	S1506.26,492.476,1486.55,492.476z M1486.55,430.178c-16.58,0-30.07,12.743-30.07,28.317c0,15.575,13.49,28.317,30.07,28.317
	c16.58,0,30.08-12.742,30.08-28.317c0-15.574-13.49-28.204-30.08-28.204V430.178z"/>
<path d="M1403.93,492.844c-4.81,0-8.28-0.34-8.68-0.382l0.6-5.664c6.67,0.694,25.6,1.048,33.17-5.522
	c9.11-7.9,10.71-18.604,10.04-22.285c-0.28-1.116-0.81-2.152-1.56-3.03c-2.06-2.52-3.15-5.705-3.04-8.962
	c0-5.749-0.58-7.08-1.06-8.113c-2.2-3.215-5.41-5.605-9.12-6.796c-4.82-1.416-20.64-1.855-26.34-1.898v-5.663
	c2.17,0,21.45,0.198,27.92,2.124c5.25,1.625,9.73,5.102,12.61,9.783c0.89,1.869,1.69,4.092,1.61,10.633
	c-0.08,2.071,0.63,4.095,1.98,5.664c1.26,1.542,2.12,3.363,2.52,5.309c1.05,5.749-1.26,18.335-11.89,27.567
	C1425.69,491.711,1412.65,492.844,1403.93,492.844z"/>
<path d="M1432.85,501.084l-3.88-4.12c1.79-1.699,6.81-6.895,8.49-10.591c3.98-8.99,0.58-14.484,0.43-14.725l4.72-3.129
	c0.22,0.326,5.33,8.142,0,20.148C1440.17,494.118,1433.14,500.744,1432.85,501.084z"/>
<path d="M1299.73,2265.8c-0.53-0.38-12.93-10.08-12.93-45.6c0-30.41,12.45-39.65,12.98-40.03l3.29,4.6l-1.64-2.3l1.67,2.29
	c-0.12,0-10.64,8.28-10.64,35.4c0,32.22,10.58,41.06,10.69,41.06L1299.73,2265.8z"/>
<path d="M1780.17,2265.8l-3.4-4.53c0.07,0,10.66-8.85,10.66-41.06c0-27.15-10.53-35.39-10.63-35.39l3.31-4.59
	c0.54,0.37,12.99,9.61,12.99,40.02C1793.1,2255.72,1780.69,2265.42,1780.17,2265.8z"/>
<path d="M1780.17,2395.04l-3.4-4.53c0.07,0,10.66-8.85,10.66-41.06c0-27.14-10.53-35.39-10.63-35.39l3.31-4.59
	c0.54,0.38,12.99,9.63,12.99,40.02C1793.1,2384.96,1780.69,2394.65,1780.17,2395.04z"/>
<path d="M1779.96,2509.97l-2.98-4.82c0,0,10.45-7.08,10.45-33.21c0-22.2-10.29-28.5-10.39-28.56l2.83-4.89
	c0.54,0.32,13.2,8.05,13.2,33.45C1793.1,2501.54,1780.55,2509.64,1779.96,2509.97z"/>
<path d="M1299.66,2394.53c-0.53-0.39-12.75-9.91-12.75-45.06c0-30.05,12.31-39.18,12.83-39.56l3.3,4.61l-1.64-2.31l1.67,2.3
	c-0.11,0-10.49,8.17-10.49,34.96c0,31.8,10.43,40.46,10.55,40.55L1299.66,2394.53z"/>
<path d="M1299.81,2509.94c-0.52-0.34-12.94-8.75-12.94-39.46c0-26.34,12.46-34.35,12.99-34.69l3.01,4.8
	c-0.11,0.07-10.33,6.98-10.33,29.89c0,27.24,10.27,34.66,10.39,34.73L1299.81,2509.94z"/>
<path d="M717.615,2388.44l-3.129-69.23l5.663-0.26l2.874,63.66l356.417-10.82l-1.33-64.84l5.66-0.12l1.46,70.46L717.615,2388.44z"/>
<path d="M720.544,2486.11l-1.274-42.05l367.67-11.16l1.27,42.05L720.544,2486.11z M725.103,2449.54l0.935,30.74l356.342-10.82
	l-0.93-30.72L725.103,2449.54z"/>
<path d="M723.503,2583.8l-1.274-42.03l367.671-11.17l1.27,42.05L723.503,2583.8z M728.062,2547.25l0.934,30.73l356.374-10.88
	l-0.94-30.74L728.062,2547.25z"/>
<path d="M722.115,2449.06c-1.048-0.74-10.307-7.99-11.114-34.72c-0.708-23.32,8.764-30.81,9.16-31.15l3.441,4.5l-1.728-2.25
	l1.756,2.23c-0.071,0-7.575,6.38-6.966,26.46c0.722,23.9,8.665,30.21,8.75,30.28L722.115,2449.06z"/>
<path d="M1085.95,2437.97l-3.53-4.43c0,0,7.58-6.83,6.85-30.72c-0.6-20.08-8.49-25.93-8.49-25.99l3.19-4.68
	c0.42,0.28,10.32,7.18,11.02,30.5C1095.75,2429.48,1086.95,2437.21,1085.95,2437.97z"/>
<path d="M1088.92,2535.66l-3.52-4.43c0,0,7.57-6.82,6.85-30.72c-0.62-20.08-8.5-25.94-8.57-26l3.19-4.67
	c0.42,0.28,10.32,7.17,11.03,30.5C1098.72,2527.06,1089.93,2534.86,1088.92,2535.66z"/>
<path d="M1091.34,2622.54l-3.14-4.76c0,0,7.4-5.5,6.82-24.73c-0.49-16.13-8.07-20.72-8.15-20.76l2.72-4.97
	c0.42,0.24,10.5,5.96,11.1,25.49C1101.41,2615.66,1091.75,2622.27,1091.34,2622.54z"/>
<path d="M725.004,2546.31c-1.034-0.72-10.18-7.88-10.987-34.29c-0.694-23.05,8.665-30.46,9.061-30.75l3.469,4.47
	c-0.071,0-7.462,6.3-6.867,26.11c0.722,23.66,8.495,29.73,8.58,29.83L725.004,2546.31z"/>
<path d="M727.809,2633.54c-0.411-0.25-10.294-6.51-11.001-30.08c-0.623-20.29,8.919-26.91,9.316-27.1l3.157,4.7
	c-0.297,0.21-7.334,5.36-6.824,22.23c0.609,20.11,8.254,25.38,8.339,25.48L727.809,2633.54z"/>
<path d="M715.094,2321.98l-0.538-2.26c-0.213-0.92-21.889-93.29-44.033-150.24c-21.635-55.64-68.669-121.11-71.005-124.34
	C508.45,1944.4,452,1854,452,1714.94c0-249.19,185.477-437.06,431.41-437.06c38.364-0.02,76.572,4.87,113.693,14.55l-1.416,5.48
	c-36.654-9.56-74.382-14.39-112.263-14.37c-242.705,0-425.746,185.48-425.746,431.4c0,137.33,55.926,226.75,146.158,326.52
	l0.198,0.23c0.482,0.68,49.428,68.27,71.784,125.74c20.346,52.32,40.239,134.12,43.736,148.66l358.736-11.95
	c1.12-14.99,7.86-92.51,31.29-156.72c14.68-40.26,47.97-104.77,48.31-105.36l0.14-0.25c13.97-21.43,24.88-36.93,33.63-49.39
	c20.31-28.89,30.52-43.4,47.12-84.76l5.25,2.11c-16.84,41.97-27.81,57.57-47.73,85.9c-8.72,12.41-19.57,27.82-33.46,49.12
	c-1.65,3.21-33.68,65.5-47.94,104.57c-25.64,70.27-31.15,156.84-31.15,157.7l-0.15,2.58L715.094,2321.98z"/>
<path d="M2308.89,2245.77l-323.17-13l1.9-62.15l5.66,0.17l-1.72,56.54l311.98,12.56l3.06-55.51l5.66,0.32L2308.89,2245.77z"/>
<path d="M2305.48,2331.44l-323.24-13.01l1.51-37.58l323.24,13L2305.48,2331.44z M1988.13,2313.04l311.92,12.54l1.05-26.26
	l-311.91-12.55L1988.13,2313.04z"/>
<path d="M2302.04,2417.1l-323.24-13l1.51-37.59l323.24,13.01L2302.04,2417.1z M1984.69,2398.69l311.92,12.55l1.05-26.26
	l-311.92-12.55L1984.69,2398.69z"/>
<path d="M2304.29,2298.85l-3.2-4.67c0,0,6.91-5.45,7.74-26.2c0.71-17.47-5.66-22.92-5.66-22.98l3.47-4.46
	c0.35,0.27,8.74,7.08,7.91,27.67C2313.55,2291.83,2305.24,2298.2,2304.29,2298.85z"/>
<path d="M1984.69,2285.99c-0.89-0.72-8.67-7.74-7.7-31.36c0.82-20.63,9.71-26.69,10.09-26.9l3.1,4.74l-1.54-2.37l1.58,2.35
	c0,0-6.88,5.06-7.58,22.45c-0.84,20.74,5.66,26.72,5.66,26.79L1984.69,2285.99z"/>
<path d="M1981.23,2371.65c-0.87-0.72-8.65-7.73-7.7-31.34c0.84-20.65,9.73-26.71,10.11-26.91l3.1,4.75l-1.55-2.37l1.6,2.34
	c-0.08,0-6.9,5.07-7.59,22.47c-0.84,20.73,5.66,26.72,5.66,26.77L1981.23,2371.65z"/>
<path d="M1978.39,2447.88c-0.92-0.61-8.92-6.57-8.13-26.39c0.71-17.37,9.76-22.41,10.15-22.65l2.71,4.97
	c-0.27,0.15-6.63,3.97-7.2,17.86c-0.66,16.75,5.57,21.43,5.67,21.47L1978.39,2447.88z"/>
<path d="M2300.9,2384.17l-3.19-4.66c0,0,6.81-5.39,7.63-25.84c0.69-17.16-5.67-22.65-5.67-22.65l3.51-4.45
	c0.36,0.28,8.66,6.95,7.83,27.36C2310.08,2377.23,2301.84,2383.53,2300.9,2384.17z"/>
<path d="M2297.68,2460.71l-2.83-4.89c0,0,6.62-4.53,7.32-21.94c0.59-14.56-5.4-19.09-5.67-19.27l3.22-4.66
	c0.35,0.24,8.82,6.17,8.09,24.16C2306.95,2454.64,2298.63,2460.14,2297.68,2460.71z"/>
<path d="M2311.62,2187.46l-323.87-14.04l-0.13-2.58c0-0.76-4.06-76.72-25.94-138.55c-12.15-34.34-39.64-89.12-41.16-92.13
	c-12.4-19.43-20.39-31.25-26.23-39.89c-12.89-19.04-15.95-23.57-33.6-60.7l5.11-2.43c17.47,36.74,20.49,41.2,33.19,59.96
	c5.86,8.68,13.9,20.57,26.39,40.13l0.14,0.25c0.28,0.57,28.94,57.44,41.5,92.92c19.82,56.16,25.19,123.66,26.09,137.58l314.12,13.64
	c3.37-13.53,21.43-84.5,39.65-129.92c20.12-50.28,63.71-109.22,64.12-109.8l0.2-0.24c79.98-86.71,129.8-164.65,130.99-285.03
	c2.13-215.63-156.75-379.81-369.53-381.91c-32.29-0.33-92.15,1.88-130.4,20.16l-2.44-5.11c39.28-18.77,100.14-21.04,132.89-20.71
	c216.03,2.13,377.31,168.77,375.2,387.61c-1.2,122.16-51.55,201.06-132.39,288.71c-2.2,2.99-43.89,59.91-63.33,108.43
	c-19.92,49.75-39.73,130.6-39.93,131.4L2311.62,2187.46z"/>
<path d="M852.078,2314.92c-0.779-4.73-63.077-384.96-98.119-557.66c-26.901-8.37-50.857-24.48-64.591-50.34
	c-9.713-18.3-10.676-35.7-2.605-47.74c2.459-3.85,5.935-6.94,10.042-8.94c4.108-2,8.688-2.83,13.234-2.39
	c12.403,1.22,23.319,11.05,29.96,26.91c4.063,9.78,10.718,38.22,18.859,77.95c24.487,6.7,50.178,7.74,75.125,3.03
	c27.963-5.31,54.893-20.02,74.545-38.85c-3.54-6.37-6.089-13.24-7.561-20.37c-8.042-37.21,2.832-59.85,14.498-67.96
	c6.556-4.52,13.918-4.99,19.695-1.24c9.316,6.04,12.559,20.79,8.891,40.46c-3.426,18.4-14.016,35.48-28.317,49.95
	c7.547,11.11,18.803,18.19,33.641,21.11c14.838,2.91,31.843,1.1,47.035-3.23c14.94-42.6,30.4-49.98,37.07-50.97
	c2.46-0.47,5.01-0.16,7.3,0.86c2.29,1.03,4.22,2.74,5.51,4.89c4.06,6.45,3.14,16.11-2.29,24.07c-6.39,9.27-23.14,19.61-43.16,25.86
	c-2.406,7.08-4.756,14.98-7.078,23.8c-27.552,107.61-46.213,543.03-46.397,547.41l-5.664-0.24
	c0.184-4.38,18.888-440.33,46.568-548.57c1.939-7.54,3.907-14.35,5.89-20.51c-14.895,3.82-31.149,5.24-45.945,2.3
	c-12.091-2.37-26.476-8.38-36.628-22.65c-21.691,20.18-50.588,34.67-76.569,39.64c-24.848,4.67-50.416,3.85-74.913-2.4
	c34.717,171.49,94.409,535.81,97.552,555.01L852.078,2314.92z M707.661,1653.45c-3.218,0.02-6.381,0.84-9.2,2.39
	c-2.818,1.56-5.205,3.79-6.941,6.5c-6.867,10.25-5.805,25.48,2.917,41.94c12.459,23.46,33.909,38.45,58.29,46.72
	c-7.759-37.78-14.059-64.63-17.91-73.87c-5.805-13.94-15.008-22.51-25.273-23.51c-0.643-0.1-1.291-0.15-1.94-0.17H707.661z
	 M1035.73,1690.26c-0.48,0-0.95,0.04-1.42,0.11c-8.42,1.33-20.12,13.76-31.15,43.28c16.81-5.8,30.66-14.42,36.09-22.31
	c4.82-7.08,4.56-13.99,2.17-17.78c-0.57-1.02-1.41-1.87-2.42-2.46c-1.01-0.58-2.16-0.89-3.33-0.88L1035.73,1690.26z
	 M926.707,1630.67c-2.864,0.09-5.634,1.04-7.943,2.74c-10.265,7.08-19.623,27.61-12.176,62.07c1.25,6.07,3.327,11.93,6.173,17.43
	c13.451-14.04,22.838-30.04,25.797-45.97c3.186-16.99,0.793-30.02-6.386-34.67c-1.645-1.09-3.577-1.66-5.55-1.65L926.707,1630.67z"
	/>
<path d="M2183.27,2179.86l-5.66-0.69c0.47-3.81,47.18-380.87,78.96-473.44c2.13-6.21,4.25-11.85,6.35-16.99
	c-13.14,2.21-27.19,2.26-39.8-1.31c-10.35-2.92-22.46-9.14-30.37-22.22c-20.36,15.99-46.5,26.54-69.47,29
	c-17.3,1.85-42.67-3.19-65.42-12.29c18.25,149.7,45.18,476.29,46.58,493.32l-5.66,0.46c-0.34-4.25-28.55-346.18-46.97-496.3
	c-17.75-7.83-33.21-18.08-40.92-29.27c-5.66-8.28-6.66-16.62-2.83-24.07c0.22-0.42,0.75-1.78,1.31-3.21
	c6.15-15.57,13.11-30.09,22.3-30.09h0.25c5.89,0.19,10.73,6.35,14.8,18.83c2.71,8.39,6.28,31.51,10.32,63.89
	c21.96,9.33,47.43,15.12,65.62,13.16c24.69-2.95,48.05-12.8,67.4-28.41c-2.6-5.77-4.31-11.89-5.07-18.17
	c-4.43-33.21,6.71-52.38,17.6-58.61c6.16-3.57,12.74-3.44,17.67,0.32c7.81,6.02,9.64,19.26,5.02,36.3
	c-4.24,15.79-14.65,29.95-28.14,41.57c5.76,10.03,14.96,16.85,27.51,20.39c12.54,3.54,27.46,3.2,40.93,0.53
	c16.08-36.16,30.21-41.53,36.16-41.98c2.25-0.22,4.52,0.25,6.5,1.34c1.98,1.09,3.59,2.75,4.61,4.77c3.16,6.05,1.66,14.56-3.73,21.24
	c-6.23,7.66-21.57,15.58-39.51,19.61c-2.56,5.95-5.14,12.63-7.7,20.11C2230.38,1799.53,2183.74,2176.04,2183.27,2179.86z
	 M2302.8,1646.2h-0.58c-7.28,0.55-18.12,10.35-29.6,34.71c14.68-3.88,26.98-10.27,32.16-16.63c4.6-5.67,4.87-11.61,3.1-15
	c-0.45-0.95-1.18-1.75-2.08-2.29C2304.9,1646.44,2303.86,1646.16,2302.8,1646.2z M2031.71,1598.37c-4.38,0-10.1,8.91-16.99,26.49
	c-0.72,1.84-1.21,3.06-1.55,3.74c-2.83,5.66-2.05,11.76,2.47,18.32c6.31,9.19,19.61,18.41,35.39,25.8
	c-3.79-30.19-7.08-51.63-9.67-59.47c-4.33-13.34-8.12-14.88-9.57-14.92L2031.71,1598.37z M2211.65,1586.46
	c-2.18,0.06-4.31,0.69-6.17,1.83c-10.11,5.85-18.62,24.48-14.83,52.97c0.65,5.18,1.98,10.25,3.95,15.09
	c12.48-11.19,21.62-24.31,25.27-37.82c3.94-14.5,2.84-25.84-3.01-30.33c-1.5-1.12-3.33-1.72-5.21-1.69V1586.46z"/>
<path d="M901.208,2714.91l-1.926-5.32c12.998-4.7,318.868-114.96,362.148-116.57c10.43-0.38,20.53-0.17,30.3,0
	c31.7,0.64,61.63,1.25,102.29-16.99c53.04-23.69,131.68-49.81,178.4-45.51c49.36,4.55,164.01,2.09,198.14-18.66
	c9.4-5.66,19.24-14.24,29.73-23.27c29.42-25.49,66.09-57.27,124.79-55.8c15.58,0.39,25.13,3.09,35.2,5.95
	c14.16,4,30.19,8.49,68.3,8.9c31.7,0.33,58.66-6.87,84.77-13.8c27.96-7.42,56.89-15.08,90.98-13.3
	c65.51,3.44,118.59,55.8,120.81,58.05l-3.99,4.01c-0.54-0.53-53.8-53.05-117.12-56.38c-33.23-1.74-60.41,5.48-89.2,13.12
	c-26.47,7.08-53.8,14.28-86.26,13.99c-38.88-0.37-55.32-5.02-69.81-9.13c-10.13-2.83-18.88-5.34-33.79-5.66
	c-56.54-1.42-92.26,29.52-120.94,54.41c-10.61,9.19-20.62,17.88-30.43,23.84c-38.23,23.21-159.68,23.32-201.6,19.45
	c-45.75-4.24-123.18,21.64-175.57,45.04c-41.82,18.69-73.79,18.04-104.77,17.4c-9.69-0.18-19.71-0.39-29.98,0
	C1219.22,2600.26,904.379,2713.76,901.208,2714.91z"/>
<path d="M660.131,2640.86c-5.437,0-10.916-0.12-16.438-0.35c-1.09,0-1.855-0.09-2.237-0.09v-5.66c0.425,0,1.26,0,2.478,0.08
	c44.684,1.93,87.216-4.07,122.967-17.33c61.773-22.89,117.742-20.95,188.025-10.4c69.124,10.36,128.844,19.31,169.354,0.22
	c41.06-19.34,128.16-13.96,131.85-13.71l-0.36,5.66c-0.9,0-89.29-5.54-129.09,13.19c-42.1,19.83-102.58,10.75-172.589,0.25
	c-69.377-10.41-124.596-12.35-185.222,10.13C736.842,2634.77,699.534,2640.86,660.131,2640.86z"/>
<path d="M1296.58,2430.89c0,0-1.81-4.98-21.47-11.33c-7.28-2.37-17.67-2.66-29.74-3c-25.4-0.72-56.99-1.6-82.02-22.57
	c-35.11-29.42-82.12-38.86-82.57-38.96l1.08-5.55c1.98,0.38,48.87,9.78,85.13,40.17c23.52,19.71,54.03,20.56,78.54,21.24
	c12.46,0.35,23.23,0.65,31.29,3.28c22.86,7.45,25.33,13.9,25.33,16.32h-5.67C1296.5,2430.63,1296.53,2430.76,1296.58,2430.89z"/>
<path d="M1779.79,2407.67l-2.65-5.01c0.25-0.13,25.48-13.39,67.27-30.74c43.53-18.05,127.95-16.27,134.69-14.16l-1.65,5.43
	c-6.3-1.92-89.44-3.16-130.88,14.04C1805.13,2394.43,1780.04,2407.54,1779.79,2407.67z"/>
</svg>
