<svg width="537" height="213" viewBox="0 0 537 213" fill="none" xmlns="http://www.w3.org/2000/svg">
<path d="M139.508 179.362C124.407 184.486 110.337 187.852 98.2078 189.171C112.278 195.554 126.211 200.634 139.508 204.363C152.805 200.634 166.738 195.57 180.808 189.171C168.679 187.852 154.609 184.486 139.508 179.362Z" fill="url(#paint0_linear_92_1070)"/>
<path d="M66.7019 144.369C65.868 143.823 65.0493 143.292 64.2306 142.747C58.2721 149.084 53.4355 155.391 49.8877 161.486C52.0406 163.033 54.2542 164.564 56.5133 166.08C57.3472 159.47 60.9102 152.056 66.7019 144.369Z" fill="url(#paint1_linear_92_1070)"/>
<path d="M212.314 144.369C218.121 152.056 221.684 159.47 222.503 166.095C224.777 164.579 226.975 163.048 229.128 161.501C225.565 155.406 220.729 149.099 214.785 142.762C213.967 143.292 213.133 143.823 212.314 144.369Z" fill="url(#paint2_linear_92_1070)"/>
<path d="M129.304 0.439681C129.304 4.19976 129.107 7.97501 129.365 11.7199C129.562 14.449 129.926 17.3297 130.957 19.8314C133.565 26.1538 140.691 27.9732 145.497 23.7734C148.105 21.4992 149.53 18.482 149.742 15.0706C150 10.9012 149.939 6.7166 150.015 2.53199C150.03 1.84972 150.015 1.15228 150.015 0.303232C153.229 1.28874 155.882 2.8807 158.308 4.86687C165.525 10.8102 168.891 18.7398 169.937 27.8519C170.013 28.5645 170.18 29.4893 170.665 29.8835C171.893 30.8994 171.605 31.9304 171.362 33.2646C170.908 35.8572 169.467 37.1156 167.041 37.9647C162.356 39.6173 157.808 41.6641 153.184 43.4835C152.289 43.8322 151.304 44.0597 150.349 44.0597C143.162 44.1051 135.99 44.1051 128.804 44.0597C127.909 44.0597 126.954 43.8626 126.12 43.529C120.905 41.467 115.735 39.2837 110.504 37.2521C109.291 36.7821 108.578 36.1604 108.351 34.8717C108.214 34.0833 107.972 33.2797 107.653 32.5368C107.259 31.5968 107.578 31.0358 108.123 30.2323C108.791 29.2467 109.215 27.9883 109.382 26.7906C110.671 18.0878 114.067 10.507 121.026 4.91236C123.421 2.98683 126.242 1.62229 128.88 0C129.001 0.151616 129.153 0.303227 129.304 0.439681Z" fill="url(#paint3_linear_92_1070)"/>
<path d="M111.974 43.438C115.219 44.7571 118.494 45.9094 121.602 47.4104C124.938 49.0024 128.334 49.5785 132.003 49.4724C138.022 49.3056 144.056 49.4572 150.091 49.3965C151.091 49.3814 152.168 49.154 153.093 48.7749C157.732 46.8342 162.356 44.8026 166.981 42.8164C168.649 49.2753 165.389 59.7216 158.854 65.8166C149.954 74.1251 137.385 75.9294 126.621 70.3802C116.811 65.3314 110.534 53.8692 111.974 43.438Z" fill="#3E4149"/>
<path d="M132.791 0.0606689C137.385 0.0606689 141.934 0.0606689 146.285 0.0606689C146.285 5.32175 146.407 10.4767 146.225 15.6165C146.164 17.6178 145.027 19.3614 143.329 20.5743C140.418 22.6666 136.203 21.9237 134.383 18.8004C133.595 17.4359 132.928 15.7984 132.867 14.2519C132.655 9.56701 132.791 4.8669 132.791 0.0606689Z" fill="url(#paint4_linear_92_1070)"/>
<path d="M143.344 88.1647L146.285 82.8885C146.664 82.1911 146.316 81.3268 145.558 81.1146C144.163 80.7355 141.934 80.2504 139.675 80.2504C137.416 80.2504 135.187 80.7355 133.792 81.1146C133.034 81.3268 132.685 82.1911 133.064 82.8885L136.006 88.1647H137.264L132.337 105.54L139.69 133.452L147.043 105.54L142.116 88.1647H143.344Z" fill="url(#paint5_linear_92_1070)"/>
<path d="M189.238 90.0146C184.508 88.2558 172.712 84.0561 158.415 81.7363C155.579 88.1649 139.675 138.911 139.675 153.163C139.675 138.896 123.892 91.9401 120.935 81.7363C106.638 84.0561 94.8419 88.2558 90.1115 90.0146C85.0475 91.8946 74.4344 148.19 78.058 151.298C86.5636 158.591 136.279 179.362 139.508 179.362C142.737 179.362 192.786 158.591 201.307 151.298C204.915 148.19 194.302 91.9098 189.238 90.0146Z" fill="#3E4149"/>
<g opacity="0.6">
<path opacity="0.4" d="M201.822 142.61C197.516 151.783 139.493 179.362 139.493 179.362C139.493 179.362 184.735 163.821 199.715 152.404C199.715 152.404 202.065 151.601 202.035 148.508C201.989 145.4 201.822 142.61 201.822 142.61Z" fill="white"/>
<path opacity="0.4" d="M77.5273 142.61C81.8332 151.783 139.857 179.362 139.857 179.362C139.857 179.362 94.6144 163.821 79.6347 152.405C79.6347 152.405 77.2847 151.601 77.315 148.508C77.3605 145.4 77.5273 142.61 77.5273 142.61Z" fill="white"/>
</g>
<path d="M57.6505 177.093C56.1344 173.803 55.6795 170.149 56.1647 166.222C53.9056 164.706 51.692 163.174 49.5391 161.628C42.5496 173.605 40.5027 184.764 44.6419 193.77C54.0572 214.239 92.7345 217.514 139.159 204.49C125.863 200.76 111.929 195.696 97.8591 189.298C77.4971 191.496 62.6235 187.903 57.6505 177.093Z" fill="url(#paint6_linear_92_1070)"/>
<path d="M276.175 86.502C265.926 64.2448 221.047 62.3193 169.24 79.6035C169.255 79.6793 169.286 79.7551 169.301 79.8309C211.389 66.519 247.004 68.0655 255.085 85.6378C262.241 101.178 244.806 122.678 214.422 142.888C213.603 143.434 212.784 143.965 211.95 144.51C200.321 152.046 186.934 159.384 172.363 166.131C160.992 171.392 149.818 175.88 139.144 179.503C154.245 184.628 168.315 187.994 180.445 189.313C181.157 188.995 181.87 188.676 182.582 188.343C197.016 181.656 210.313 174.151 222.139 166.237C224.413 164.721 226.612 163.189 228.765 161.643C265.137 135.535 285.135 105.954 276.175 86.502Z" fill="url(#paint7_linear_92_1070)"/>
<path d="M165.753 105.333C165.723 105.378 165.692 105.439 165.662 105.484C186.039 117.78 202.186 131.547 211.95 144.495C212.784 143.949 213.618 143.419 214.422 142.873C202.353 130.001 185.675 116.992 165.753 105.333Z" fill="url(#paint8_linear_92_1070)"/>
<path d="M63.8821 142.873C64.7008 143.419 65.5195 143.949 66.3534 144.495C75.5868 132.245 90.5665 119.266 109.412 107.486C109.367 107.425 109.321 107.364 109.276 107.304C90.8091 118.447 75.2988 130.728 63.8821 142.873Z" fill="url(#paint9_linear_92_1070)"/>
<path d="M228.78 161.628C226.627 163.174 224.413 164.706 222.154 166.222C222.639 170.149 222.184 173.818 220.668 177.093C215.695 187.903 200.822 191.496 180.46 189.283C168.345 187.979 154.26 184.598 139.159 179.473C128.486 175.849 117.311 171.377 105.94 166.101C91.3699 159.354 77.9822 152.015 66.3532 144.48C65.5193 143.934 64.7006 143.404 63.8819 142.858C33.498 122.647 16.0622 101.163 23.2184 85.6075C31.0418 68.6265 64.5793 66.61 104.833 78.5119C104.864 78.4057 104.879 78.3148 104.909 78.2086C54.8759 62.3951 12.105 64.8058 2.12863 86.4717C-6.83188 105.924 13.1663 135.52 49.5238 161.598C51.6768 163.144 53.8904 164.675 56.1495 166.191C67.9755 174.106 81.2723 181.611 95.7061 188.297C96.4187 188.631 97.1313 188.934 97.8439 189.267C111.914 195.65 125.847 200.73 139.144 204.459C185.569 217.483 224.246 214.193 233.662 193.74C237.816 184.764 235.769 173.59 228.78 161.628Z" fill="url(#paint10_linear_92_1070)"/>
<path opacity="0.3" d="M276.539 86.502C266.274 64.1993 221.214 62.3193 169.27 79.7096C169.285 79.7854 169.301 79.8612 169.331 79.9219C211.571 66.4887 247.353 68.0049 255.464 85.6227C261.862 99.5107 248.581 118.144 224.019 136.384C215.968 155.23 202.793 172.15 187.555 186.099C200.215 179.973 211.996 173.272 222.533 166.222C224.807 164.706 227.006 163.174 229.159 161.628C265.516 135.535 285.499 105.954 276.539 86.502Z" fill="#2D917E"/>
<path opacity="0.3" d="M2.12863 86.3757C-6.83188 105.828 13.1663 135.423 49.5238 161.501C51.6768 163.048 53.8904 164.579 56.1495 166.095C67.9755 174.01 81.2723 181.515 95.7061 188.201C96.4187 188.535 97.1313 188.838 97.8439 189.171C107.79 193.69 117.645 197.51 127.273 200.694C108.108 187.504 90.4299 171.751 78.2551 151.662C74.116 149.266 70.1133 146.825 66.3229 144.369C65.489 143.823 64.6703 143.292 63.8516 142.747C33.4677 122.536 16.0318 101.052 23.1881 85.4963C31.0267 68.4698 64.7461 66.4836 105.152 78.5068C105.182 78.4158 105.197 78.3097 105.228 78.2187C55.0578 62.2839 12.1201 64.6491 2.12863 86.3757Z" fill="url(#paint11_linear_92_1070)"/>
<path d="M301.934 12.6448H290.351V0.0151367H330.529V12.6448H319.037V76.9452H301.934V12.6448Z" fill="#3E4149"/>
<path d="M337.261 0.0151367H358.442C373.922 0.0151367 383.989 4.19975 383.989 20.3469C383.989 29.8532 382.185 36.1149 374.589 39.7234L385.126 76.9603H367.554L359.094 42.4828H354.242V76.9603H337.246V0.0151367H337.261ZM359.018 32.6884C366.144 32.6884 368.236 28.7009 368.236 21.863C368.236 15.3132 366.235 11.4167 359.776 11.4167H354.272V32.6884H359.018Z" fill="#3E4149"/>
<path d="M405.064 0.0151367H424.44L438.783 76.9603H423.106L420.544 60.7222H409.233L406.58 76.9603H390.524L405.064 0.0151367ZM418.937 50.5488L414.858 20.5288L410.78 50.5488H418.937Z" fill="#3E4149"/>
<path d="M446.576 0.0151367H466.044C486.087 0.0151367 491.879 7.23207 491.879 24.3344V52.2621C491.879 69.5463 486.087 76.9603 466.241 76.9603H446.576V0.0151367ZM466.241 65.1797C473.943 65.1797 474.413 61.8594 474.413 54.9153V21.393C474.413 14.6461 473.655 11.9018 466.15 11.9018H463.587V65.1949H466.241V65.1797Z" fill="#3E4149"/>
<path d="M502.219 0.0151367H536.788V11.5986H519.231V30.6871H532.618V42.4677H519.231V65.4678H537V76.9603H502.234V0.0151367H502.219Z" fill="#3E4149"/>
<path d="M290.351 87.452H303.602C312.335 87.452 319.81 89.4685 319.81 100.764C319.81 106.92 316.99 110.119 312.335 110.998C318.233 111.756 321.372 116.017 321.372 123.249C321.372 133.801 315.777 138.319 305.982 138.319H290.351V87.452ZM303.784 107.799C308.863 107.799 309.94 105.343 309.94 101.082C309.94 97.0645 307.741 94.9873 303.526 94.9873H301.586V107.799H303.784ZM303.966 130.466C308.924 130.466 310.501 127.949 310.501 123.051C310.501 117.336 308.803 115.198 303.905 115.198H301.586V130.466H303.966Z" fill="#3E4149"/>
<path d="M326.906 122.551V87.452H338.019V124.249C338.019 127.448 338.398 130.966 341.976 130.966C345.554 130.966 345.873 127.448 345.873 124.249V87.452H357.047V122.566C357.047 133.24 353.651 139.077 341.976 139.077C330.226 139.077 326.906 133.24 326.906 122.551Z" fill="#3E4149"/>
<path d="M363.081 122.93L372.694 121.49C372.815 128.085 374.331 130.541 377.151 130.541C379.471 130.541 379.971 128.601 379.971 126.842C379.971 122.627 377.833 120.125 374.377 117.169L369.98 113.333C366.083 110.073 363.127 106.237 363.127 100.082C363.127 91.485 368.585 86.7698 377.379 86.7698C388.249 86.7698 389.811 95.2451 390.008 101.219L380.335 102.417C380.214 97.8984 379.895 95.0025 377 95.0025C374.922 95.0025 373.982 97.201 373.982 98.9597C373.982 102.72 375.923 104.736 378.88 107.314L383.079 111.013C387.476 114.773 390.994 119.246 390.994 126.281C390.994 133.498 385.778 139.092 377.682 139.092C368.1 139.077 363.46 134.241 363.081 122.93Z" fill="#3E4149"/>
<path d="M396.558 87.452H407.793V138.319H396.558V87.452Z" fill="#3E4149"/>
<path d="M415.389 87.452H423.303L433.719 111.938V87.452H443.013V138.319H435.417L424.986 111.938V138.319H415.374V87.452H415.389Z" fill="#3E4149"/>
<path d="M450.624 87.452H473.488V95.1086H461.874V107.738H470.729V115.531H461.874V130.723H473.624V138.319H450.639V87.452H450.624Z" fill="#3E4149"/>
<path d="M477.582 122.93L487.194 121.49C487.315 128.085 488.832 130.541 491.652 130.541C493.971 130.541 494.472 128.601 494.472 126.842C494.472 122.627 492.334 120.125 488.877 117.169L484.48 113.333C480.584 110.073 477.627 106.237 477.627 100.082C477.627 91.485 483.085 86.7698 491.879 86.7698C502.735 86.7698 504.312 95.2451 504.509 101.219L494.836 102.417C494.714 97.8984 494.396 95.0025 491.5 95.0025C489.423 95.0025 488.483 97.201 488.483 98.9597C488.483 102.72 490.424 104.736 493.38 107.314L497.595 111.013C501.992 114.773 505.509 119.246 505.509 126.281C505.509 133.498 500.294 139.092 492.197 139.092C482.6 139.077 477.946 134.241 477.582 122.93Z" fill="#3E4149"/>
<path d="M508.86 122.93L518.473 121.49C518.594 128.085 520.11 130.541 522.93 130.541C525.25 130.541 525.75 128.601 525.75 126.842C525.75 122.627 523.612 120.125 520.156 117.169L515.759 113.333C511.862 110.073 508.906 106.237 508.906 100.082C508.906 91.485 514.364 86.7698 523.157 86.7698C534.013 86.7698 535.59 95.2451 535.787 101.219L526.114 102.417C525.993 97.8984 525.674 95.0025 522.778 95.0025C520.701 95.0025 519.761 97.201 519.761 98.9597C519.761 102.72 521.702 104.736 524.659 107.314L528.873 111.013C533.27 114.773 536.788 119.246 536.788 126.281C536.788 133.498 531.572 139.092 523.476 139.092C513.879 139.077 509.224 134.241 508.86 122.93Z" fill="#3E4149"/>
<path d="M435.599 159.03C431.824 159.03 431.323 162.366 431.323 165.777V193.523C431.323 196.798 431.612 200.285 435.599 200.285C439.587 200.285 440.011 196.798 440.011 193.523V165.777C440.011 162.366 439.587 159.03 435.599 159.03Z" fill="#29A8A4"/>
<path d="M477.309 159.03C473.534 159.03 473.048 162.366 473.048 165.777V193.523C473.048 196.798 473.336 200.285 477.309 200.285C481.296 200.285 481.721 196.798 481.721 193.523V165.777C481.721 162.366 481.296 159.03 477.309 159.03Z" fill="#29A8A4"/>
<path d="M289.82 147.204V212.096H536.242V147.204H289.82ZM314.321 209.306C303.435 209.306 298.174 203.833 297.75 191.021L308.636 189.384C308.772 196.843 310.486 199.618 313.685 199.618C316.308 199.618 316.884 197.404 316.884 195.418C316.884 190.657 314.473 187.807 310.546 184.456L305.558 180.12C301.146 176.421 297.811 172.084 297.811 165.11C297.811 155.361 303.996 150.024 313.958 150.024C326.269 150.024 328.043 159.621 328.255 166.384L317.293 167.733C317.157 162.608 316.793 159.333 313.518 159.333C311.168 159.333 310.107 161.82 310.107 163.821C310.107 168.097 312.32 170.371 315.656 173.282L320.416 177.482C325.389 181.757 329.377 186.806 329.377 194.766C329.407 202.984 323.494 209.306 314.321 209.306ZM368.691 171.69H356.243V165.929C356.243 162.593 356.168 159.03 352.119 159.03C348.071 159.03 347.707 162.654 347.707 166.141V193.25C347.707 197.162 348.344 200.3 352.119 200.3C356.107 200.3 356.243 196.737 356.243 193.25V187.2H368.691V192.189C368.691 201.998 364.992 209.321 352.119 209.321C338.959 209.321 334.835 201.786 334.835 190.111V169.34C334.835 157.393 338.959 150.07 352.119 150.07C364.855 150.07 368.691 156.892 368.691 166.717V171.69ZM410.325 208.457H397.513V183.274H388.629V208.457H375.893V150.843H388.629V174.177H397.513V150.843H410.325V208.457ZM453.035 190.324C453.035 202.21 448.623 209.321 435.599 209.321C422.651 209.321 418.315 202.21 418.315 190.324V168.916C418.315 157.029 422.651 150.054 435.599 150.054C448.623 150.054 453.035 157.029 453.035 168.916V190.324ZM494.745 190.324C494.745 202.21 490.333 209.321 477.309 209.321C464.361 209.321 460.025 202.21 460.025 190.324V168.916C460.025 157.029 464.361 150.054 477.309 150.054C490.333 150.054 494.745 157.029 494.745 168.916V190.324ZM528.479 208.457H502.507V150.843H515.243V199.86H528.479V208.457Z" fill="#29A8A4"/>
<defs>
<linearGradient id="paint0_linear_92_1070" x1="78.4417" y1="216.568" x2="297.154" y2="118.428" gradientUnits="userSpaceOnUse">
<stop stop-color="#A51AF4"/>
<stop offset="0.7581" stop-color="#6900BC"/>
</linearGradient>
<linearGradient id="paint1_linear_92_1070" x1="52.2363" y1="158.074" x2="271.168" y2="59.8358" gradientUnits="userSpaceOnUse">
<stop stop-color="#A51AF4"/>
<stop offset="0.7581" stop-color="#6900BC"/>
</linearGradient>
<linearGradient id="paint2_linear_92_1070" x1="79.1323" y1="217.021" x2="297.285" y2="119.132" gradientUnits="userSpaceOnUse">
<stop stop-color="#A51AF4"/>
<stop offset="0.7581" stop-color="#6900BC"/>
</linearGradient>
<linearGradient id="paint3_linear_92_1070" x1="139.005" y1="-36.9548" x2="140.361" y2="151.034" gradientUnits="userSpaceOnUse">
<stop stop-color="#3DBEBA"/>
<stop offset="0.2336" stop-color="#15928D"/>
<stop offset="0.4432" stop-color="#3DBEBA"/>
<stop offset="0.8012" stop-color="#15928D"/>
<stop offset="1" stop-color="#3DBEBA"/>
</linearGradient>
<linearGradient id="paint4_linear_92_1070" x1="139.212" y1="-36.9565" x2="140.567" y2="151.033" gradientUnits="userSpaceOnUse">
<stop stop-color="#3DBEBA"/>
<stop offset="0.2336" stop-color="#15928D"/>
<stop offset="0.4432" stop-color="#3DBEBA"/>
<stop offset="0.8012" stop-color="#15928D"/>
<stop offset="1" stop-color="#3DBEBA"/>
</linearGradient>
<linearGradient id="paint5_linear_92_1070" x1="131.971" y1="43.9977" x2="147.177" y2="146.291" gradientUnits="userSpaceOnUse">
<stop stop-color="#3DBEBA"/>
<stop offset="0.2336" stop-color="#15928D"/>
<stop offset="0.4432" stop-color="#3DBEBA"/>
<stop offset="0.8012" stop-color="#15928D"/>
<stop offset="1" stop-color="#3DBEBA"/>
</linearGradient>
<linearGradient id="paint6_linear_92_1070" x1="42.5141" y1="186.921" x2="139.16" y2="186.921" gradientUnits="userSpaceOnUse">
<stop stop-color="#0F7AEF"/>
<stop offset="1" stop-color="#6CE3FF"/>
</linearGradient>
<linearGradient id="paint7_linear_92_1070" x1="139.16" y1="128.662" x2="278.302" y2="128.662" gradientUnits="userSpaceOnUse">
<stop stop-color="#0F7AEF"/>
<stop offset="1" stop-color="#6CE3FF"/>
</linearGradient>
<linearGradient id="paint8_linear_92_1070" x1="145.269" y1="124.913" x2="214.431" y2="124.913" gradientUnits="userSpaceOnUse">
<stop stop-color="#FE651B"/>
<stop offset="1" stop-color="#FCD878"/>
</linearGradient>
<linearGradient id="paint9_linear_92_1070" x1="63.8894" y1="125.896" x2="133.051" y2="125.896" gradientUnits="userSpaceOnUse">
<stop stop-color="#0F7AEF"/>
<stop offset="1" stop-color="#6CE3FF"/>
</linearGradient>
<linearGradient id="paint10_linear_92_1070" x1="0.0176369" y1="140.125" x2="235.805" y2="140.125" gradientUnits="userSpaceOnUse">
<stop stop-color="#FE651B"/>
<stop offset="1" stop-color="#FCD878"/>
</linearGradient>
<linearGradient id="paint11_linear_92_1070" x1="1151.53" y1="59.5328" x2="-2870.66" y2="341.462" gradientUnits="userSpaceOnUse">
<stop stop-color="#FE651B"/>
<stop offset="1" stop-color="#FCD878"/>
</linearGradient>
</defs>
</svg>
